<svg width="14" height="6" viewBox="0 0 14 6" fill="none" xmlns="http://www.w3.org/2000/svg">
<path fill-rule="evenodd" clip-rule="evenodd" d="M2.80017 2.80005C2.91054 2.80015 3.00037 2.88985 3.00037 3.00024C3.00026 3.11055 2.91047 3.20033 2.80017 3.20044C2.68978 3.20044 2.60008 3.11061 2.59998 3.00024C2.59998 2.88979 2.68971 2.80005 2.80017 2.80005ZM2.80017 5.20044C4.01504 5.20033 5.00026 4.21512 5.00037 3.00024C5.00037 1.78528 4.01511 0.800154 2.80017 0.800049C1.58514 0.800049 0.599976 1.78522 0.599976 3.00024C0.600081 4.21518 1.58521 5.20044 2.80017 5.20044ZM11.2002 2.80005C11.3105 2.80015 11.4004 2.88985 11.4004 3.00024C11.4003 3.11055 11.3105 3.20033 11.2002 3.20044C11.0898 3.20044 11.0001 3.11061 11 3.00024C11 2.88979 11.0897 2.80005 11.2002 2.80005ZM11.2002 5.20044C12.415 5.20033 13.4003 4.21512 13.4004 3.00024C13.4004 1.78528 12.4151 0.800154 11.2002 0.800049C9.98515 0.800049 8.99998 1.78522 8.99998 3.00024C9.00008 4.21518 9.98521 5.20044 11.2002 5.20044Z" fill="#637085"/>
</svg>
